<svg width="50" height="50" viewBox="0 0 50 50" fill="none" xmlns="http://www.w3.org/2000/svg">
<path d="M32.9559 38.2656C32.6283 38.2103 32.2926 38.1825 31.958 38.1825H28.7636V36.1447C30.6034 34.9167 31.818 32.8228 31.818 30.4497V26.7841C31.818 25.5215 31.4713 24.2874 30.8151 23.2159L29.5647 23.9815C30.0797 24.8226 30.352 25.7919 30.352 26.7841V27.5528L30.1594 27.1969C29.5731 26.1131 28.4435 25.4398 27.2114 25.4398H22.7394C21.5073 25.4398 20.3777 26.1131 19.7914 27.1969L19.5992 27.5528V26.7841C19.5992 23.8194 22.0108 21.4077 24.9756 21.4077C26.4057 21.4077 27.7519 21.9631 28.7659 22.9714L29.7997 21.9315C28.5092 20.6482 26.796 19.9413 24.9756 19.9413C21.2025 19.9413 18.1328 23.011 18.1328 26.7841V30.4497C18.1328 32.8228 19.3478 34.9171 21.1876 36.1447V38.1825H17.9932C14.7015 38.1825 12.0236 40.8604 12.0236 44.1525V50H13.4899V44.1525C13.4899 41.6691 15.5098 39.6488 17.9932 39.6488H21.2441C21.5515 41.4307 23.1072 42.791 24.9756 42.791C26.844 42.791 28.3997 41.4307 28.7071 39.6488H31.958C32.2113 39.6488 32.465 39.6698 32.7126 39.7118L32.9559 38.2656ZM27.2972 39.003C27.2972 40.2832 26.2558 41.3246 24.9756 41.3246C23.6954 41.3246 22.654 40.2832 22.654 39.003V36.8862C23.3792 37.1487 24.1608 37.2921 24.9756 37.2921C25.7904 37.2921 26.5721 37.1487 27.2972 36.8862V39.003ZM24.9756 35.8261C22.0703 35.8261 19.6976 33.5095 19.6037 30.6271L21.0816 27.8946C21.4111 27.285 22.0467 26.9062 22.7394 26.9062H27.2114C27.9045 26.9062 28.5401 27.285 28.8696 27.8946L30.3475 30.6267C30.2532 33.5095 27.8805 35.8261 24.9756 35.8261Z" fill="#3E3E3E"/>
<path d="M34.5444 38.7707L33.9084 40.0917C35.4595 40.8383 36.4612 42.4324 36.4612 44.1525V50H37.9276V44.1525C37.9276 41.8724 36.5997 39.7602 34.5444 38.7707Z" fill="#3E3E3E"/>
<path d="M32.0625 46.481H33.5289V50H32.0625V46.481Z" fill="#3E3E3E"/>
<path d="M16.4223 46.481H17.8886V50H16.4223V46.481Z" fill="#3E3E3E"/>
<path d="M12.9856 6.90996L11.2903 3.47559L9.59509 6.90996L5.80481 7.4608L8.54758 10.1345L7.90022 13.9095L11.2903 12.1273L14.6805 13.9095L14.0331 10.1345L16.7759 7.4608L12.9856 6.90996ZM12.7331 11.2293L11.2903 10.4706L9.84763 11.2293L10.123 9.62259L8.95575 8.48466L10.569 8.25044L11.2903 6.78865L12.0117 8.25044L13.6249 8.48466L12.4576 9.62259L12.7331 11.2293Z" fill="#108AC9"/>
<path d="M27.1595 6.90997L25.4642 3.47522L23.7694 6.90997L19.9787 7.46082L22.7215 10.1345L22.0741 13.9096L25.4642 12.1273L28.8547 13.9096L28.207 10.1342L30.9498 7.46082L27.1595 6.90997ZM26.9073 11.2294L25.4642 10.4706L24.0215 11.2294L24.2969 9.6226L23.1296 8.48468L24.7429 8.25046L25.4642 6.78867L26.1856 8.25046L27.7988 8.48468L26.6315 9.6226L26.9073 11.2294Z" fill="#108AC9"/>
<mask id="path-7-inside-1" fill="white">
<path d="M38.6608 3.47522L36.9656 6.90997L33.1753 7.46082L35.9181 10.1342L35.2707 13.9096L38.6608 12.1273L42.0513 13.9096L41.4036 10.1342L44.1464 7.46082L40.3561 6.90997L38.6608 3.47522ZM40.1035 11.2294L38.6608 10.4706L37.2177 11.2294L37.4935 9.6226L36.3262 8.48468L37.9395 8.25046L38.6608 6.78867L39.3822 8.25046L40.9954 8.48468L39.8281 9.6226L40.1035 11.2294Z"/>
</mask>
<path d="M38.6608 3.47522L36.9656 6.90997L33.1753 7.46082L35.9181 10.1342L35.2707 13.9096L38.6608 12.1273L42.0513 13.9096L41.4036 10.1342L44.1464 7.46082L40.3561 6.90997L38.6608 3.47522ZM40.1035 11.2294L38.6608 10.4706L37.2177 11.2294L37.4935 9.6226L36.3262 8.48468L37.9395 8.25046L38.6608 6.78867L39.3822 8.25046L40.9954 8.48468L39.8281 9.6226L40.1035 11.2294Z" fill="#108AC9"/>
<path d="M38.6608 3.47522L797.291 -370.953L38.6608 -1908.02L-719.969 -370.953L38.6608 3.47522ZM36.9656 6.90997L158.637 844.115L598.758 780.152L795.596 381.338L36.9656 6.90997ZM33.1753 7.46082L-88.4958 -829.744L-1784.89 -583.207L-557.32 613.292L33.1753 7.46082ZM35.9181 10.1342L869.749 153.108L944.914 -285.258L626.414 -595.697L35.9181 10.1342ZM35.2707 13.9096L-798.56 -129.064L-1088.23 1560.33L428.938 762.737L35.2707 13.9096ZM38.6608 12.1273L432.293 -736.718L38.6387 -943.644L-355.006 -736.7L38.6608 12.1273ZM42.0513 13.9096L-351.581 762.755L1165.73 1560.33L875.869 -129.146L42.0513 13.9096ZM41.4036 10.1342L-549.092 -595.697L-867.63 -285.221L-792.414 153.19L41.4036 10.1342ZM44.1464 7.46082L634.642 613.292L1862.21 -583.207L165.817 -829.744L44.1464 7.46082ZM40.3561 6.90997L-718.274 381.338L-521.436 780.152L-81.315 844.115L40.3561 6.90997ZM40.1035 11.2294L-353.681 759.995L1163.57 1557.94L873.942 -131.703L40.1035 11.2294ZM38.6608 10.4706L432.446 -738.295L38.7129 -945.364L-355.042 -738.338L38.6608 10.4706ZM37.2177 11.2294L-796.588 -131.895L-1086.65 1557.94L430.921 760.038L37.2177 11.2294ZM37.4935 9.6226L871.299 152.747L946.553 -285.661L628.036 -596.163L37.4935 9.6226ZM36.3262 8.48468L-85.2283 -828.737L-1781.79 -582.416L-554.216 614.27L36.3262 8.48468ZM37.9395 8.25046L159.494 845.472L599.734 781.555L796.594 382.628L37.9395 8.25046ZM38.6608 6.78867L797.316 -367.589L38.6608 -1904.96L-719.994 -367.589L38.6608 6.78867ZM39.3822 8.25046L-719.273 382.628L-522.412 781.555L-82.1724 845.472L39.3822 8.25046ZM40.9954 8.48468L631.537 614.27L1859.11 -582.416L162.55 -828.737L40.9954 8.48468ZM39.8281 9.6226L-550.714 -596.163L-869.142 -285.748L-794.01 152.555L39.8281 9.6226ZM-719.969 -370.953L-721.664 -367.518L795.596 381.338L797.291 377.903L-719.969 -370.953ZM-84.7055 -830.295L-88.4958 -829.744L154.846 844.666L158.637 844.115L-84.7055 -830.295ZM-557.32 613.292L-554.577 615.965L626.414 -595.697L623.671 -598.37L-557.32 613.292ZM-797.913 -132.84L-798.56 -129.064L869.102 156.883L869.749 153.108L-797.913 -132.84ZM428.938 762.737L432.328 760.955L-355.006 -736.7L-358.397 -734.918L428.938 762.737ZM-354.972 760.973L-351.581 762.755L435.684 -734.936L432.293 -736.718L-354.972 760.973ZM875.869 -129.146L875.221 -132.921L-792.414 153.19L-791.766 156.965L875.869 -129.146ZM631.899 615.965L634.642 613.292L-546.349 -598.37L-549.092 -595.697L631.899 615.965ZM165.817 -829.744L162.027 -830.295L-81.315 844.115L-77.5247 844.666L165.817 -829.744ZM798.986 -367.518L797.291 -370.953L-719.969 377.903L-718.274 381.338L798.986 -367.518ZM433.888 -737.536L432.446 -738.295L-355.124 759.236L-353.681 759.995L433.888 -737.536ZM-355.042 -738.338L-356.486 -737.579L430.921 760.038L432.364 759.279L-355.042 -738.338ZM871.023 154.354L871.299 152.747L-796.312 -133.502L-796.588 -131.895L871.023 154.354ZM628.036 -596.163L626.868 -597.301L-554.216 614.27L-553.048 615.408L628.036 -596.163ZM157.881 845.707L159.494 845.472L-83.6151 -828.971L-85.2283 -828.737L157.881 845.707ZM796.594 382.628L797.316 381.167L-719.994 -367.589L-720.715 -366.128L796.594 382.628ZM-719.994 381.167L-719.273 382.628L798.037 -366.128L797.316 -367.589L-719.994 381.167ZM-82.1724 845.472L-80.5591 845.707L162.55 -828.737L160.937 -828.971L-82.1724 845.472ZM-549.547 -597.301L-550.714 -596.163L630.37 615.408L631.537 614.27L-549.547 -597.301ZM-794.01 152.555L-793.735 154.162L873.942 -131.703L873.666 -133.31L-794.01 152.555Z" fill="#108AC9" mask="url(#path-7-inside-1)"/>
<path d="M47.263 0H38.2599V1.46637H47.263C47.9366 1.46637 48.4848 2.01454 48.4848 2.68822V15.3957C48.4848 16.0698 47.9366 16.618 47.263 16.618H13.9786V21.801L6.63528 16.618H2.68822C2.01454 16.618 1.46637 16.0698 1.46637 15.3957V9.00993H0V15.3957C0 16.8781 1.20583 18.084 2.68822 18.084H6.17027L15.4449 24.6311V18.084H47.263C48.7453 18.084 49.9512 16.8781 49.9512 15.3957V2.68822C49.9512 1.20583 48.7453 0 47.263 0Z" fill="#3E3E3E"/>
<path d="M1.46637 2.68822C1.46637 2.01454 2.01454 1.46637 2.68822 1.46637H36.7939V0H2.68822C1.20583 0 0 1.20583 0 2.68822V7.54356H1.46637V2.68822Z" fill="#3E3E3E"/>
<path d="M14.9559 44.1524H16.4223C16.4223 43.2861 17.1268 42.5812 17.9932 42.5812V41.1152C16.3185 41.1152 14.9559 42.4778 14.9559 44.1524Z" fill="#3E3E3E"/>
<path d="M46.9208 6.59828V2.93274H43.2552V4.39873H45.4544V6.59828H46.9208Z" fill="#108AC9"/>
<path d="M2.93274 11.388V15.0539H6.59828V13.5876H4.39873V11.388H2.93274Z" fill="#108AC9"/>
<path d="M21.3101 46.7255H22.776V48.1915H21.3101V46.7255Z" fill="#3E3E3E"/>
<path d="M24.2424 46.7255H25.7088V48.1915H24.2424V46.7255Z" fill="#3E3E3E"/>
<path d="M27.1751 46.7255H28.6411V48.1915H27.1751V46.7255Z" fill="#3E3E3E"/>
</svg>
