<svg width="50" height="50" viewBox="0 0 50 50" fill="none" xmlns="http://www.w3.org/2000/svg">
<path d="M48.3871 28.2258C48.3871 29.1129 47.6613 29.8387 46.7742 29.8387H3.22582C2.33872 29.8387 1.61292 29.1129 1.61292 28.2258V27.4194C1.61292 26.5323 2.33872 25.8065 3.22582 25.8065H46.7742C47.6613 25.8065 48.3871 26.5323 48.3871 27.4194V28.2258Z" fill="#108AC9"/>
<path d="M4.03225 14.5161C4.03225 12.7371 5.47902 11.2903 7.25805 11.2903H42.7419C44.521 11.2903 45.9677 12.7371 45.9677 14.5161V26.6129H47.5806V14.5161C47.5806 11.8476 45.4105 9.67743 42.7419 9.67743H7.25805C4.5895 9.67743 2.41934 11.8476 2.41934 14.5161V26.6129H4.03225V14.5161Z" fill="#3E3E3E"/>
<path d="M45.1613 29.8387V25.8065H43.5484V29.8387H41.9355V25.8065H40.3226V29.8387H38.7097V25.8065H37.0968V29.8387H35.4839V25.8065H36.2903C37.6242 25.8065 38.7097 24.721 38.7097 23.3871V21.7742C38.7097 20.4403 37.6242 19.3549 36.2903 19.3549H29.8387C28.5048 19.3549 27.4194 20.4403 27.4194 21.7742V23.3871C27.4194 24.721 28.5048 25.8065 29.8387 25.8065H30.6452V29.8387H29.0323V25.8065H27.4194V29.8387H25.8065V25.8065H24.1935V29.8387H22.5806V25.8065H20.9677V29.8387H19.3548V25.8065H20.9677C22.3016 25.8065 23.3871 24.721 23.3871 23.3871V21.7742C23.3871 20.4403 22.3016 19.3549 20.9677 19.3549H14.5161C13.1823 19.3549 12.0968 20.4403 12.0968 21.7742V23.3871C12.0968 24.721 13.1823 25.8065 14.5161 25.8065V29.8387H12.9032V25.8065H11.2903V29.8387H9.67742V25.8065H8.06452V29.8387H6.45161V25.8065H4.83871V29.8387H0V36.2903V37.0968V40.3226H1.6129V37.0968H48.3871V40.3226H50V37.0968V36.2903V29.8387H45.1613ZM29.8387 24.1936C29.3935 24.1936 29.0323 23.8323 29.0323 23.3871V21.7742C29.0323 21.3291 29.3935 20.9678 29.8387 20.9678H36.2903C36.7355 20.9678 37.0968 21.3291 37.0968 21.7742V23.3871C37.0968 23.8323 36.7355 24.1936 36.2903 24.1936H29.8387ZM32.2581 25.8065H33.871V29.8387H32.2581V25.8065ZM13.7097 23.3871V21.7742C13.7097 21.3291 14.071 20.9678 14.5161 20.9678H20.9677C21.4129 20.9678 21.7742 21.3291 21.7742 21.7742V23.3871C21.7742 23.8323 21.4129 24.1936 20.9677 24.1936H14.5161C14.071 24.1936 13.7097 23.8323 13.7097 23.3871ZM16.129 25.8065H17.7419V29.8387H16.129V25.8065ZM1.6129 31.4516H48.3871V35.4839H1.6129V31.4516Z" fill="#3E3E3E"/>
<rect x="1" y="26" width="48" height="4" rx="2" fill="#108AC9"/>
</svg>
