<svg width="72" height="72" viewBox="0 0 72 72" fill="none" xmlns="http://www.w3.org/2000/svg">
<g clip-path="url(#clip0)">
<path d="M30.7714 56.1512C27.9588 58.8051 27.8296 63.2524 30.4834 66.065C33.1373 68.8776 37.5846 69.0068 40.3972 66.353C43.2098 63.6991 43.339 59.2518 40.6852 56.4392C38.0313 53.6266 33.584 53.4974 30.7714 56.1512Z" fill="#108AC9"/>
<path d="M36.3098 35.9138C29.5343 35.7171 23.0875 38.1707 18.1574 42.8226C17.5691 43.3777 17.5422 44.3047 18.0972 44.8929C18.6523 45.4812 19.5793 45.5081 20.1675 44.953C24.5287 40.838 30.2313 38.6676 36.2249 38.8418C42.2184 39.0158 47.7854 41.5135 51.9004 45.8747C52.4555 46.4629 53.3825 46.4899 53.9708 45.9348C54.559 45.3797 54.5859 44.4527 54.0309 43.8645C49.3788 38.9343 43.0854 36.1107 36.3098 35.9138Z" fill="black"/>
<path d="M24.4023 49.4049C23.814 49.96 23.7871 50.887 24.3421 51.4753C24.8972 52.0635 25.8242 52.0904 26.4124 51.5354C31.7723 46.4781 40.2473 46.7242 45.3046 52.0841C45.8597 52.6723 46.7867 52.6993 47.3749 52.1442C47.9632 51.5891 47.9901 50.6621 47.4351 50.0739C41.2694 43.5394 30.9368 43.2392 24.4023 49.4049Z" fill="black"/>
<path d="M49.2903 29.9645C45.2449 28.1854 40.9441 27.218 36.5074 27.0893C32.0707 26.9604 27.721 27.6765 23.579 29.2176C19.2901 30.8135 15.4139 33.2281 12.0582 36.3943C11.4699 36.9494 11.443 37.8764 11.9981 38.4646C12.5531 39.0529 13.4801 39.0798 14.0684 38.5248C20.1397 32.7961 28.0785 29.7748 36.4223 30.0171C44.766 30.2594 52.5161 33.7365 58.2447 39.8078C58.7997 40.396 59.7267 40.423 60.315 39.8679C60.9032 39.3128 60.9302 38.3859 60.3751 37.7976C57.209 34.4421 53.4795 31.8067 49.2903 29.9645Z" fill="black"/>
<path d="M52.8911 21.9137C47.8036 19.6766 42.395 18.46 36.8153 18.298C31.2357 18.1359 25.7655 19.0365 20.5568 20.9746C15.1633 22.9815 10.2888 26.018 6.06865 29.9999C5.48039 30.555 5.45347 31.482 6.00852 32.0702C6.56358 32.6585 7.49057 32.6854 8.07884 32.1304C12.0122 28.419 16.5541 25.5893 21.5782 23.7198C26.4317 21.9138 31.5295 21.0747 36.7302 21.2258C41.9309 21.3768 46.9715 22.5104 51.712 24.595C56.6191 26.7528 60.9891 29.8415 64.7005 33.7748C65.2555 34.3631 66.1825 34.39 66.7708 33.8349C67.359 33.2799 67.386 32.3529 66.8309 31.7646C62.8491 27.5446 58.1591 24.2302 52.8911 21.9137Z" fill="#3E3E3E"/>
</g>
<defs>
<clipPath id="clip0">
<rect width="50" height="50" fill="white" transform="translate(0.973816 34.8071) rotate(-43.3364)"/>
</clipPath>
</defs>
</svg>
