<svg width="50" height="50" viewBox="0 0 50 50" fill="none" xmlns="http://www.w3.org/2000/svg">
<path d="M44.3548 50H40.0992L36.1936 47.6564L33.829 48.4443L18.5484 41.6532V36.5935L8.025 24.5669L7.25806 25.3339V27.175L13.7097 36.8524V42.7419H9.98548L8.06452 38.9V37.7266L5.14677 36.9968L3.22581 34.1153V31.696L1.6129 29.2766V24.3839L0 21.1581V15.3226H5.04758L12.3056 19.3548H16.9355V20.9677H11.8879L4.62984 16.9355H1.6129V20.7774L3.22581 24.0032V28.7879L4.83871 31.2072V33.6266L6.14355 35.5839L9.67742 36.4669V38.5193L10.9823 41.129H12.0968V37.3411L5.64516 27.6637V24.6661L8.10403 22.2072L20.1613 35.9871V40.6048L33.9129 46.7169L36.3871 45.8919L40.546 48.3871H42.7419V47.771L41.9355 46.1581V42.7419H46.7742V41.7451L48.3871 38.5193V34.6774H47.9145L43.8823 38.7097H34.6774V33.871H37.4718L40.3226 29.5943V28.2258H36.6815L34.0194 24.4984L35.3315 23.5613L37.5121 26.6129H41.9355V30.0831L38.3347 35.4839H36.2903V37.0968H43.2145L47.2468 33.0645H50V38.9L48.3871 42.1258V44.3548H43.5484V45.7774L44.3548 47.3903V50Z" fill="#3E3E3E"/>
<path d="M26.6129 33.871C25.3282 33.871 24.1444 33.2282 23.4444 32.1516L15.7944 20.3815C14.4307 18.2839 13.7097 15.8516 13.7097 13.35V12.9032C13.7097 5.78871 19.4984 0 26.6129 0C33.7274 0 39.5161 5.78871 39.5161 12.9032V13.35C39.5161 15.8524 38.7952 18.2839 37.4315 20.3823L29.7815 32.1524C29.0815 33.2282 27.8976 33.871 26.6129 33.871Z" fill="#108AC9"/>
<path d="M26.6129 20.9678C22.1661 20.9678 18.5484 17.35 18.5484 12.9033C18.5484 8.45649 22.1661 4.83875 26.6129 4.83875C31.0597 4.83875 34.6774 8.45649 34.6774 12.9033C34.6774 17.35 31.0597 20.9678 26.6129 20.9678ZM26.6129 6.45165C23.0556 6.45165 20.1613 9.346 20.1613 12.9033C20.1613 16.4605 23.0556 19.3549 26.6129 19.3549C30.1701 19.3549 33.0645 16.4605 33.0645 12.9033C33.0645 9.346 30.1701 6.45165 26.6129 6.45165Z" fill="white"/>
<path d="M23.4516 12.2573L21.8709 11.9363C22.3266 9.69274 24.3209 8.06451 26.6129 8.06451V9.67742C25.0847 9.67742 23.7556 10.7621 23.4516 12.2573Z" fill="white"/>
<path d="M22.7427 15.8073C22.3137 15.2371 22.0129 14.5678 21.8717 13.871L23.4524 13.5508C23.5475 14.0202 23.7427 14.4533 24.0322 14.8387L22.7427 15.8073Z" fill="white"/>
</svg>
