<svg width="50" height="50" viewBox="0 0 50 50" fill="none" xmlns="http://www.w3.org/2000/svg">
<path d="M22.0823 22.8887C21.7565 22.8887 21.429 22.9662 21.1379 23.1113L20.1428 23.6089C19.5258 23.3492 18.2444 22.8879 16.9355 22.8879C15.6266 22.8879 14.3452 23.3484 13.7282 23.6089L12.7331 23.1113C12.4419 22.9654 12.1145 22.8887 11.7887 22.8887C10.625 22.8887 9.67743 23.8363 9.67743 25V31.4516H24.1936V25C24.1936 23.8363 23.246 22.8887 22.0823 22.8887Z" fill="#108AC9"/>
<path d="M38.2113 22.8887C37.8855 22.8887 37.5581 22.9662 37.2669 23.1113L36.2718 23.6089C35.6548 23.3492 34.3734 22.8879 33.0645 22.8879C31.7557 22.8879 30.4742 23.3484 29.8573 23.6089L28.8621 23.1113C28.571 22.9654 28.2436 22.8887 27.9177 22.8887C26.754 22.8887 25.8065 23.8363 25.8065 25V31.4516H40.3226V25C40.3226 23.8363 39.375 22.8887 38.2113 22.8887Z" fill="#108AC9"/>
<path d="M39.5161 17.4677V1.6129H50V0H0V1.6129H10.4839V17.4677C9.38871 17.6073 8.30564 17.6911 7.25806 17.7218V16.7871C8.19436 16.4532 8.87097 15.5661 8.87097 14.5161C8.87097 13.1823 7.78548 12.0968 6.45161 12.0968C5.11774 12.0968 4.03226 13.1823 4.03226 14.5161C4.03226 15.5661 4.70887 16.4532 5.64516 16.7871V31.5185C3.72016 32.6355 2.41935 34.7153 2.41935 37.0968C2.41935 37.9863 3.14274 38.7097 4.03226 38.7097H4.83871V40.3226H4.03226V46.7742H5.82177L6.62742 50H12.7258L13.5315 46.7742H36.4661L37.2718 50H43.3702L44.1758 46.7742H45.9677V40.3226H45.1613V38.7097H45.9677C46.8573 38.7097 47.5806 37.9863 47.5806 37.0968C47.5806 34.7153 46.2798 32.6355 44.3548 31.5177V16.7871C45.2911 16.4532 45.9677 15.5661 45.9677 14.5161C45.9677 13.1823 44.8823 12.0968 43.5484 12.0968C42.2145 12.0968 41.129 13.1823 41.129 14.5161C41.129 15.5661 41.8056 16.4532 42.7419 16.7871V17.7218C41.6944 17.6911 40.6113 17.6073 39.5161 17.4677ZM12.0968 1.6129H24.1935V3.22581H16.9355V6.6C15.9992 6.93387 15.3226 7.82097 15.3226 8.87097C15.3226 10.2048 16.4081 11.2903 17.7419 11.2903C19.0758 11.2903 20.1613 10.2048 20.1613 8.87097C20.1613 7.82097 19.4847 6.93387 18.5484 6.6V4.83871H24.1935V6.45161H23.6476L21.3895 12.0968H28.6097L26.3516 6.45161H25.8065V4.83871H31.4516V6.6C30.5153 6.93387 29.8387 7.82097 29.8387 8.87097C29.8387 10.2048 30.9242 11.2903 32.2581 11.2903C33.5919 11.2903 34.6774 10.2048 34.6774 8.87097C34.6774 7.82097 34.0008 6.93387 33.0645 6.6V3.22581H25.8065V1.6129H37.9032V17.2282C35.8637 16.8774 33.8653 16.3613 32.1436 15.7161C31.8508 15.6065 31.5218 15.4742 31.1669 15.3306C29.4685 14.6468 27.1419 13.7097 25 13.7097C22.8581 13.7097 20.5315 14.6468 18.8331 15.3306C18.4782 15.4734 18.1492 15.6056 17.8565 15.7161C16.1347 16.3613 14.1363 16.8774 12.0968 17.2282V1.6129ZM18.5484 8.87097C18.5484 9.31532 18.1871 9.67742 17.7419 9.67742C17.2968 9.67742 16.9355 9.31532 16.9355 8.87097C16.9355 8.42661 17.2968 8.06452 17.7419 8.06452C18.1871 8.06452 18.5484 8.42661 18.5484 8.87097ZM24.7395 8.06452H25.2605L26.2282 10.4839H23.771L24.7395 8.06452ZM33.0645 8.87097C33.0645 9.31532 32.7032 9.67742 32.2581 9.67742C31.8129 9.67742 31.4516 9.31532 31.4516 8.87097C31.4516 8.42661 31.8129 8.06452 32.2581 8.06452C32.7032 8.06452 33.0645 8.42661 33.0645 8.87097ZM6.45161 13.7097C6.89677 13.7097 7.25806 14.0718 7.25806 14.5161C7.25806 14.9605 6.89677 15.3226 6.45161 15.3226C6.00645 15.3226 5.64516 14.9605 5.64516 14.5161C5.64516 14.0718 6.00645 13.7097 6.45161 13.7097ZM11.4669 48.3871H7.8879L7.48387 46.7742H11.8702L11.4669 48.3871ZM42.1121 48.3871H38.5331L38.129 46.7742H42.5153L42.1121 48.3871ZM41.9355 40.3226V41.9355H44.3548V45.1613H5.64516V41.9355H40.3226V40.3226H6.45161V37.9032C6.45161 36.5694 7.5371 35.4839 8.87097 35.4839H41.129C42.4629 35.4839 43.5484 36.5694 43.5484 37.9032V40.3226H41.9355ZM45.9677 37.0968H45.0798C44.7048 35.2589 43.0766 33.871 41.129 33.871H8.87097C6.92419 33.871 5.29516 35.2589 4.92016 37.0968H4.03226C4.03226 34.4282 6.20242 32.2581 8.87097 32.2581H41.129C43.7976 32.2581 45.9677 34.4282 45.9677 37.0968ZM41.129 30.6452H8.87097C8.3129 30.6452 7.775 30.7234 7.25806 30.8573V19.3347C10.9573 19.2331 15.1573 18.4508 18.4218 17.2266C18.7266 17.1121 19.0669 16.975 19.4355 16.8266C21.0113 16.1919 23.1702 15.3226 25 15.3226C26.8298 15.3226 28.9887 16.1919 30.5645 16.8266C30.9331 16.975 31.2734 17.1121 31.5782 17.2266C34.8427 18.45 39.0427 19.2331 42.7419 19.3347V30.8581C42.225 30.7234 41.6871 30.6452 41.129 30.6452ZM43.5484 13.7097C43.9935 13.7097 44.3548 14.0718 44.3548 14.5161C44.3548 14.9605 43.9935 15.3226 43.5484 15.3226C43.1032 15.3226 42.7419 14.9605 42.7419 14.5161C42.7419 14.0718 43.1032 13.7097 43.5484 13.7097Z" fill="#3E3E3E"/>
</svg>
