<svg width="50" height="50" viewBox="0 0 50 50" fill="none" xmlns="http://www.w3.org/2000/svg">
<g clip-path="url(#clip0)">
<path d="M6.41089 36.6249C6.49439 36.7072 6.59491 36.7709 6.70556 36.8106V49.1699C6.70556 49.6284 7.07724 50 7.53565 50H45.7198C46.1783 50 46.5499 49.6284 46.5499 49.1699V29.2477C46.5499 28.7893 46.1783 28.4177 45.7198 28.4177H41.5629C42.4043 27.3201 43.2296 25.9955 43.2296 25.0973C43.2288 23.7168 42.3735 22.481 41.0822 21.9934C39.7905 21.5058 38.3321 21.8681 37.4189 22.9033C36.5058 21.8681 35.0474 21.5058 33.7557 21.9934C32.4643 22.481 31.6091 23.7168 31.6083 25.0973C31.6083 25.9955 32.4335 27.3201 33.275 28.4177H15.7916L19.3231 24.8865L25.1925 19.0167L36.9326 7.27667C37.2564 6.95283 37.2564 6.42713 36.9326 6.10328L31.0631 0.233463C30.7336 -0.0778211 30.2185 -0.0778211 29.8893 0.233463L22.1543 7.96815C19.4435 5.8459 16.2127 4.5193 14.6279 6.10328C13.5879 7.14332 13.8071 8.89714 14.6802 10.7458L11.0546 14.3726C9.20516 13.4999 7.45094 13.2802 6.41089 14.3211C4.82772 15.9031 6.15433 19.1355 8.27698 21.8458L0.541485 29.5797C0.21723 29.904 0.21723 30.4292 0.541485 30.7535L6.41089 36.6249ZM33.2685 25.0973C33.2685 24.1805 34.0118 23.4371 34.9287 23.4371C35.8455 23.4371 36.5888 24.1805 36.5888 25.0973V25.3214C36.5888 25.7798 36.9605 26.1515 37.4189 26.1515C37.8773 26.1515 38.249 25.7798 38.249 25.3214V25.0973C38.249 24.1805 38.9924 23.4371 39.9092 23.4371C40.826 23.4371 41.5694 24.1805 41.5694 25.0973C41.0931 26.3457 40.3559 27.4777 39.4062 28.4177H35.4317C34.4824 27.4777 33.7447 26.3457 33.2685 25.0973ZM30.7782 30.0778H44.8898V48.3398H30.7782V30.0778ZM24.1375 30.0778H29.118V48.3398H24.1375V30.0778ZM22.4773 30.0778V48.3398H8.36574V35.8885H8.31994L14.1764 30.0328V30.0778H22.4773ZM18.737 23.125L14.041 18.429L18.737 13.7334L23.4326 18.429L18.737 23.125ZM30.4762 1.99416L35.1719 6.69018L24.6064 17.2552L19.9108 12.5628L30.4762 1.99416ZM15.8017 7.27667C16.0003 7.11698 16.2532 7.04078 16.5074 7.06348C17.4327 7.06348 19.0483 7.66862 20.9723 9.14965L18.1501 11.9719L17.6751 12.4473C15.6704 9.84517 15.2703 7.80805 15.8017 7.27667ZM15.5212 12.2572C15.8183 12.7237 16.1438 13.1854 16.494 13.6329L13.9364 16.1904C13.489 15.8402 13.0277 15.5148 12.562 15.2169L15.5212 12.2572ZM7.58469 15.4949C7.7829 15.3352 8.035 15.2586 8.28873 15.2813C9.21488 15.2813 10.8313 15.8856 12.7553 17.3675L12.2803 17.8421L9.45807 20.6647C7.45256 18.0622 7.05332 16.0251 7.58469 15.4949ZM12.8672 19.6028L17.5632 24.2988L6.99779 34.8642L2.30624 30.1682L12.8672 19.6028Z" fill="#3E3E3E"/>
<path d="M44.0597 11.282C43.1465 10.2468 41.6882 9.88447 40.3964 10.3721C39.1051 10.8597 38.2498 12.0955 38.249 13.476C38.249 15.2789 42.1689 20.1167 44.0597 20.1167C45.9505 20.1167 49.8703 15.2789 49.8703 13.476C49.8695 12.0955 49.0143 10.8597 47.7229 10.3721C46.4312 9.88447 44.9729 10.2468 44.0597 11.282ZM48.2101 13.476C48.1919 14.5169 45 18.3345 44.0731 18.4565C43.1193 18.3337 39.9275 14.516 39.9092 13.476C39.9092 12.5592 40.6526 11.8158 41.5694 11.8158C42.4862 11.8158 43.2296 12.5592 43.2296 13.476V13.7001C43.2296 14.1586 43.6013 14.5302 44.0597 14.5302C44.5181 14.5302 44.8898 14.1586 44.8898 13.7001V13.476C44.8898 12.5592 45.6331 11.8158 46.55 11.8158C47.4668 11.8158 48.2101 12.5592 48.2101 13.476Z" fill="#108AC9"/>
<path d="M30 17.5644C29.5285 17.0446 28.7756 16.8627 28.1087 17.1075C27.442 17.3523 27.0004 17.9728 27 18.6659C27 19.5711 29.0238 22 30 22C30.9762 22 33 19.5711 33 18.6659C32.9996 17.9728 32.558 17.3523 31.8913 17.1075C31.2244 16.8627 30.4715 17.0446 30 17.5644ZM32.1429 18.6659C32.1334 19.1885 30.4855 21.1052 30.0069 21.1665C29.5145 21.1048 27.8666 19.1881 27.8571 18.6659C27.8571 18.2056 28.2409 17.8324 28.7143 17.8324C29.1876 17.8324 29.5714 18.2056 29.5714 18.6659V18.7784C29.5714 19.0086 29.7633 19.1952 30 19.1952C30.2367 19.1952 30.4286 19.0086 30.4286 18.7784V18.6659C30.4286 18.2056 30.8124 17.8324 31.2857 17.8324C31.7591 17.8324 32.1429 18.2056 32.1429 18.6659Z" fill="#108AC9"/>
<path d="M44.0597 2.68481C43.6013 2.68481 43.2296 3.05649 43.2296 3.51491V4.345H42.3995C41.9411 4.345 41.5694 4.71667 41.5694 5.17509C41.5694 5.6335 41.9411 6.00518 42.3995 6.00518H43.2296V6.83527C43.2296 7.29369 43.6013 7.66536 44.0597 7.66536C44.5181 7.66536 44.8898 7.29369 44.8898 6.83527V6.00518H45.7199C46.1783 6.00518 46.5499 5.6335 46.5499 5.17509C46.5499 4.71667 46.1783 4.345 45.7199 4.345H44.8898V3.51491C44.8898 3.05649 44.5181 2.68481 44.0597 2.68481Z" fill="#108AC9"/>
<path d="M36.2685 13.9663C36.2685 14.4247 35.8968 14.7964 35.4384 14.7964C34.98 14.7964 34.6083 14.4247 34.6083 13.9663C34.6083 13.5078 34.98 13.1362 35.4384 13.1362C35.8968 13.1362 36.2685 13.5078 36.2685 13.9663Z" fill="#108AC9"/>
<path d="M25.7977 26.7575C26.2561 26.7575 26.6278 26.3858 26.6278 25.9274V25.0973H27.4578C27.9163 25.0973 28.2879 24.7256 28.2879 24.2672C28.2879 23.8088 27.9163 23.4371 27.4578 23.4371H26.6278V22.607C26.6278 22.1486 26.2561 21.7769 25.7977 21.7769C25.3392 21.7769 24.9676 22.1486 24.9676 22.607V23.4371H24.1375C23.6791 23.4371 23.3074 23.8088 23.3074 24.2672C23.3074 24.7256 23.6791 25.0973 24.1375 25.0973H24.9676V25.9274C24.9676 26.3858 25.3392 26.7575 25.7977 26.7575Z" fill="#108AC9"/>
<path d="M48.2101 24.2672C48.2101 24.7256 47.8385 25.0973 47.38 25.0973C46.9216 25.0973 46.5499 24.7256 46.5499 24.2672C46.5499 23.8088 46.9216 23.4371 47.38 23.4371C47.8385 23.4371 48.2101 23.8088 48.2101 24.2672Z" fill="#108AC9"/>
</g>
<defs>
<clipPath id="clip0">
<rect width="50" height="50" fill="white"/>
</clipPath>
</defs>
</svg>
